<svg xmlns="http://www.w3.org/2000/svg" viewBox="0 0 48 48" width="480" height="480"><path fill="#8E24AA" d="M31 13.8l2 .3C33.5 11 36.3 9 40 9V7C35.3 7 31.7 9.7 31 13.8zM8 7v2c3.7 0 6.5 2 7 5.2l2-.3C16.3 9.7 12.7 7 8 7z"/><path fill="#BA68C8" d="M24 10.2c-9.5 0-17.3 9.5-17.3 19S14.5 43 24 43s17.3-4.3 17.3-13.8S33.5 10.2 24 10.2zM40 5A3 3 0 1 0 40 11 3 3 0 1 0 40 5zM8 5A3 3 0 1 0 8 11 3 3 0 1 0 8 5z"/><path fill="#B3E5FC" d="M24,33c-4.5,0-8-3.5-8-8s3.5-8,8-8s8,3.5,8,8S28.5,33,24,33z"/><path fill="#3F51B5" d="M24 21A4 4 0 1 0 24 29A4 4 0 1 0 24 21Z"/><path fill="#FFF" d="M26.5 21A1.5 1.5 0 1 0 26.5 24A1.5 1.5 0 1 0 26.5 21Z"/><path fill="#6A1B9A" d="M30.9,38c0,0-3.3,1.7-6.9,1.7S17.1,38,17.1,38s4.1,0,6.9,0S30.9,38,30.9,38z"/></svg>