<svg xmlns="http://www.w3.org/2000/svg" viewBox="0 0 48 48" width="640" height="640"><path fill="#00BCD4" d="M41.7,26.6c0,0-8.6-0.5-14.2-6.1S21.4,6.3,21.4,6.3s8.2-3.1,15.7,4.5S41.7,26.6,41.7,26.6z"/><path fill="#607D8B" d="M42.3,42.9c-3,3-13-3.6-23.3-13.9S2.1,8.7,5.1,5.7S22,2.5,33.7,14.3S45.3,39.9,42.3,42.9z"/><path fill="#78909C" d="M23.6 15.599999999999998A26.3 8.8 0 1 0 23.6 33.2A26.3 8.8 0 1 0 23.6 15.599999999999998Z" transform="rotate(45.001 23.624 24.376)"/><path fill="#26C6DA" d="M23.4 19.8A14.3 4.8 0 1 0 23.4 29.400000000000002A14.3 4.8 0 1 0 23.4 19.8Z" transform="rotate(45.001 23.366 24.635)"/><path fill="#26C6DA" d="M27.9 19.6A1.6 0.5 0 1 0 27.9 20.6A1.6 0.5 0 1 0 27.9 19.6Z" transform="rotate(45.001 27.89 20.11)"/><path fill="#26C6DA" d="M18.6 28.9A1.6 0.5 0 1 0 18.6 29.9A1.6 0.5 0 1 0 18.6 28.9Z" transform="rotate(45.001 18.584 29.417)"/><path fill="#26C6DA" d="M38 39A1.6 0.5 0 1 0 38 40A1.6 0.5 0 1 0 38 39Z" transform="rotate(45.001 37.971 39.498)"/><path fill="#26C6DA" d="M9.3 10.3A1.6 0.5 0 1 0 9.3 11.3A1.6 0.5 0 1 0 9.3 10.3Z" transform="rotate(45.001 9.277 10.805)"/><path fill="#26C6DA" d="M17.8 11.1A1.6 0.5 0 1 0 17.8 12.1A1.6 0.5 0 1 0 17.8 11.1Z" transform="rotate(45.001 17.808 11.58)"/><path fill="#26C6DA" d="M38 31.2A1.6 0.5 0 1 0 38 32.2A1.6 0.5 0 1 0 38 31.2Z" transform="rotate(45.001 37.971 31.743)"/><path fill="#26C6DA" d="M10.8 18.1A1.6 0.5 0 1 0 10.8 19.1A1.6 0.5 0 1 0 10.8 18.1Z" transform="rotate(45.001 10.829 18.56)"/><path fill="#26C6DA" d="M31 38.2A1.6 0.5 0 1 0 31 39.2A1.6 0.5 0 1 0 31 38.2Z" transform="rotate(45.001 30.992 38.723)"/><path fill="#B2EBF2" d="M24.7 20.400000000000002A8.7 2.9 0 1 0 24.7 26.2A8.7 2.9 0 1 0 24.7 20.400000000000002Z" transform="rotate(45.001 24.686 23.314)"/></svg>
