<?xml version="1.0" encoding="UTF-8"?>
<svg xmlns="http://www.w3.org/2000/svg" xmlns:xlink="http://www.w3.org/1999/xlink" width="512pt" height="512pt" viewBox="0 0 512 512" version="1.1">
<g id="surface73055">
<path style=" stroke:none;fill-rule:nonzero;fill:rgb(100%,100%,100%);fill-opacity:1;" d="M 256 455.992188 C 262.144531 456.039062 268.304688 454.425781 273.761719 451.121094 C 307.839844 430.640625 384.960938 381.039062 440.480469 320 C 476.878906 280.238281 504 235.601562 504 191.121094 C 504 116.480469 443.519531 56 368.878906 56 C 331.929688 56 298.390625 70.902344 274.046875 95 C 273.710938 95.328125 265 104 256 104 C 247 104 238.289062 95.328125 237.953125 95 C 213.609375 70.902344 180.070312 56 143.121094 56 C 68.480469 56 8 116.480469 8 191.121094 C 8 235.601562 35.121094 280.238281 71.519531 320 C 127.039062 381.039062 204.160156 430.640625 238.238281 451.121094 C 243.695312 454.417969 249.855469 456.039062 256 455.992188 Z M 256 455.992188 "/>
<path style=" stroke:none;fill-rule:nonzero;fill:rgb(100%,100%,100%);fill-opacity:1;" d="M 454.992188 86.160156 C 487.519531 121.503906 503.6875 156.847656 503.351562 192.191406 C 503.246094 203.160156 494.28125 212 483.3125 212 C 472.007812 212 463.328125 202.632812 463.359375 191.328125 C 463.359375 191.257812 463.359375 191.183594 463.359375 191.121094 C 463.359375 138.640625 420.640625 96 368.238281 96 C 360.785156 96 353.382812 96.902344 346.230469 98.625 C 337.449219 100.734375 328.359375 96.65625 324.070312 88.703125 L 324.039062 88.640625 C 317.800781 77.054688 324.265625 62.726562 337.0625 59.671875 C 372.238281 51.28125 412.6875 56.585938 451.160156 82.832031 C 452.542969 83.777344 453.855469 84.929688 454.992188 86.160156 Z M 454.992188 86.160156 "/>
<path style=" stroke:none;fill-rule:nonzero;fill:rgb(100%,100%,100%);fill-opacity:1;" d="M 255.953125 453.726562 C 247.382812 453.726562 238.710938 451.433594 230.878906 446.625 C 200.785156 428.136719 124.992188 378.785156 71.417969 319.886719 C 66.519531 314.542969 61.664062 308.871094 56.246094 302.160156 C 39.59375 281.535156 42.808594 251.3125 63.433594 234.65625 C 84.0625 218 114.28125 221.222656 130.9375 241.839844 C 135.078125 246.96875 138.695312 251.199219 142.328125 255.167969 C 189 306.488281 260.359375 352.0625 281.128906 364.816406 C 303.71875 378.6875 310.785156 408.246094 296.910156 430.839844 C 287.839844 445.59375 272.089844 453.726562 255.953125 453.726562 Z M 255.953125 453.726562 "/>
<path style=" stroke:none;fill-rule:nonzero;fill:rgb(55.294118%,42.352941%,62.352941%);fill-opacity:1;" d="M 256.257812 463.992188 C 256.089844 463.992188 255.910156 463.992188 255.742188 463.992188 C 248.113281 463.992188 240.632812 461.910156 234.105469 457.960938 C 194.664062 434.273438 120.3125 385.527344 65.601562 325.382812 C 22.078125 277.847656 0 232.671875 0 191.121094 C 0 112.199219 64.199219 48 143.121094 48 C 180.984375 48 216.664062 62.671875 243.585938 89.3125 C 245.785156 91.511719 251.671875 96 256 96 C 260.328125 96 266.214844 91.511719 268.390625 89.34375 C 295.335938 62.671875 331.015625 48 368.878906 48 C 447.800781 48 512 112.199219 512 191.121094 C 512 232.671875 489.921875 277.855469 446.375 325.40625 C 391.6875 385.535156 317.335938 434.273438 277.871094 457.976562 C 271.367188 461.910156 263.886719 463.992188 256.257812 463.992188 Z M 256 447.992188 L 256.0625 447.992188 C 261.015625 447.953125 265.542969 446.742188 269.617188 444.273438 C 300.792969 425.535156 379.238281 375.441406 434.550781 314.617188 C 475.335938 270.089844 496 228.535156 496 191.121094 C 496 121.023438 438.976562 64 368.878906 64 C 335.257812 64 303.574219 77.03125 279.671875 100.6875 C 277.816406 102.550781 267.769531 112 256 112 C 244.230469 112 234.183594 102.550781 232.296875 100.65625 C 208.425781 77.03125 176.742188 64 143.121094 64 C 73.023438 64 16 121.023438 16 191.121094 C 16 228.542969 36.664062 270.089844 77.425781 314.601562 C 132.761719 375.441406 211.199219 425.535156 242.359375 444.257812 C 246.472656 446.742188 250.894531 447.992188 255.9375 447.992188 Z M 256 447.992188 "/>
<path style=" stroke:none;fill-rule:nonzero;fill:rgb(55.294118%,42.352941%,62.352941%);fill-opacity:1;" d="M 398.921875 92.671875 C 388.953125 89.566406 378.550781 88 368 88 C 363.585938 88 360 91.574219 360 96 C 360 100.425781 363.585938 104 368 104 C 376.9375 104 385.742188 105.328125 394.167969 107.953125 C 394.960938 108.191406 395.761719 108.3125 396.542969 108.3125 C 399.953125 108.3125 403.113281 106.121094 404.183594 102.6875 C 405.496094 98.472656 403.144531 93.984375 398.921875 92.671875 Z M 453.398438 170.671875 C 454.304688 174.3125 457.566406 176.742188 461.152344 176.742188 C 461.792969 176.742188 462.449219 176.664062 463.097656 176.511719 C 467.382812 175.441406 469.992188 171.097656 468.929688 166.816406 C 463.007812 143.023438 448.742188 121.992188 428.761719 107.585938 C 425.175781 105.023438 420.175781 105.824219 417.59375 109.398438 C 415.007812 112.984375 415.816406 117.984375 419.398438 120.566406 C 436.320312 132.761719 448.390625 150.550781 453.398438 170.671875 Z M 247.734375 417.6875 C 246.34375 417.6875 244.9375 417.328125 243.648438 416.558594 C 239.847656 414.296875 238.609375 409.390625 240.863281 405.59375 L 249.046875 391.847656 C 251.3125 388.054688 256.214844 386.808594 260.015625 389.0625 C 263.816406 391.328125 265.054688 396.230469 262.800781 400.03125 L 254.617188 413.777344 C 253.121094 416.296875 250.464844 417.6875 247.734375 417.6875 Z M 213.390625 396.472656 C 211.832031 396.472656 210.257812 396.015625 208.871094 395.0625 C 205.222656 392.558594 204.304688 387.585938 206.808594 383.945312 L 215.863281 370.753906 C 218.367188 367.113281 223.34375 366.175781 226.984375 368.6875 C 230.632812 371.191406 231.550781 376.167969 229.046875 379.808594 L 220 393 C 218.449219 395.257812 215.945312 396.472656 213.390625 396.472656 Z M 180.511719 372.792969 C 178.785156 372.792969 177.03125 372.230469 175.566406 371.078125 C 172.097656 368.351562 171.496094 363.320312 174.222656 359.847656 L 184.113281 347.273438 C 186.847656 343.792969 191.878906 343.191406 195.34375 345.929688 C 198.816406 348.65625 199.417969 353.6875 196.6875 357.160156 L 186.800781 369.734375 C 185.222656 371.742188 182.878906 372.792969 180.511719 372.792969 Z M 149.078125 347.257812 C 147.175781 347.257812 145.273438 346.585938 143.742188 345.214844 C 140.457031 342.265625 140.175781 337.207031 143.128906 333.921875 L 153.808594 322.007812 C 156.753906 318.710938 161.808594 318.441406 165.105469 321.390625 C 168.390625 324.34375 168.671875 329.398438 165.71875 332.6875 L 155.039062 344.601562 C 153.457031 346.351562 151.273438 347.257812 149.078125 347.257812 Z M 119.191406 319.832031 C 117.121094 319.832031 115.046875 319.03125 113.480469 317.433594 C 110.390625 314.273438 110.441406 309.207031 113.59375 306.113281 L 125.015625 294.910156 C 128.175781 291.824219 133.230469 291.871094 136.335938 295.023438 C 139.425781 298.183594 139.375 303.246094 136.222656 306.34375 L 124.800781 317.542969 C 123.230469 319.070312 121.207031 319.832031 119.191406 319.832031 Z M 91.503906 290.078125 C 89.257812 290.078125 87.015625 289.136719 85.441406 287.296875 C 82.558594 283.953125 82.9375 278.894531 86.28125 276.015625 L 98.40625 265.574219 C 101.761719 262.695312 106.808594 263.070312 109.6875 266.414062 C 112.566406 269.761719 112.191406 274.816406 108.847656 277.695312 L 96.71875 288.136719 C 95.199219 289.449219 93.34375 290.078125 91.503906 290.078125 Z M 91.503906 290.078125 "/>
</g>
</svg>
