<svg xmlns="http://www.w3.org/2000/svg" width="480" height="480" viewBox="0 0 48 48"><path fill="#63590D" d="M20.033 32.225L15.775 28 7 28 3 32.001 10.097 35.065 12.935 37.903 16 45.001 20 41.001z"/><path fill="#AFB42B" d="M12.935 37.903L10.097 35.065 15.775 27.967 32.226 11.517 36.483 15.775 20.033 32.225z"/><path fill="#AFB42B" d="M32.226,10.098C35.064,7.258,45,3,45,3s-4.258,9.936-7.098,12.775c-2.838,2.838-6.386,4.967-6.386,4.967l-4.259-4.258C27.258,16.484,29.387,12.936,32.226,10.098z"/><path fill="#827717" d="M12.935,37.903l7.099-5.679l11.483-11.482c0,0,3.548-2.129,6.386-4.967C40.742,12.936,45,3,45,3L11.516,36.484L12.935,37.903z"/><path fill="#827717" d="M25.312 18.172H31.333000000000002V21.183H25.312z" transform="rotate(45.001 28.323 19.678)"/><path fill="#827717" d="M15.957 27.527H21.977V30.538H15.957z" transform="rotate(45.001 18.968 29.033)"/><g><path fill="#3A3205" d="M27.881 19.237H30.892V22.247999999999998H27.881z" transform="rotate(45.001 29.387 20.742)"/><path fill="#3A3205" d="M18.527 28.592H21.536V31.601999999999997H18.527z" transform="rotate(45.001 20.032 30.097)"/></g></svg>