<svg xmlns="http://www.w3.org/2000/svg" width="480" height="480" viewBox="0 0 48 48"><path fill="#FF3D00" d="M35 31.001L44 14.001 28 23.001 23 7.001 20 23.001 8 13.001 15 31.001 3 34.001 14.998 40 20 40 12 36 19 34 16 25 22.676 30.438 23.932 23.738 23.972 23.521 25.655 28.909 34.095 24.162 30 34 37 36 31 40 35.002 40 45 34.001z"/><path fill="#FF9E80" d="M30 34L34.095 24.162 25.655 28.909 23.972 23.521 23.932 23.738 22.676 30.438 16 25 19 34 12 36 20 40 23 40 19 37 23 37 21 33 25 35 28 31 27 37 31 37 28 40 31 40 37 36z"/><path fill="#FFF59D" d="M23 40L19 37 23 37 21 33 25 35 28 31 27 37 31 37 28 40z"/></svg>