<svg xmlns="http://www.w3.org/2000/svg" viewBox="0 0 48 48" width="480" height="480"><path fill="#546E7A" d="M15 26.5H21V33.6H15z" transform="rotate(45.001 18 30)"/><path fill="#FF3D00" d="M22.9,31.9L22.9,31.9c-0.5,0-1-0.2-1.3-0.6l-5-5c-0.4-0.4-0.6-0.8-0.6-1.3c0-0.5,0.2-1,0.6-1.3l1.2-1.2c0.7-0.7,1.9-0.7,2.7,0l5,5c0.7,0.7,0.7,1.9,0,2.7l-1.2,1.2C23.9,31.8,23.4,31.9,22.9,31.9z"/><path fill="#C5CAE9" d="M44,4C23.3,4,19,15,19,15l-1.1,7.5l7.7,7.7L33,29C33,29,44,25.4,44,4z"/><path fill="#9FA8DA" d="M16,44L4,32c0,0,4-4,10-4l6,6C20,40.1,16,44,16,44z M22.8,10.3c-0.6,0.5-1.1,0.9-1.5,1.3l15.1,15.1c0.4-0.4,0.9-0.9,1.3-1.5L22.8,10.3z M19.8,13.4C19.2,14.4,19,15,19,15l-0.1,0.4l13.7,13.7L33,29c0,0,0.7-0.2,1.6-0.8L19.8,13.4z"/><path fill="#7986CB" d="M5.6,30.7l11.7,11.7c0.3-0.5,0.7-1.1,1.1-1.8l-11-11C6.7,30,6.1,30.4,5.6,30.7z"/></svg>