<?xml version="1.0" encoding="UTF-8"?>
<svg xmlns="http://www.w3.org/2000/svg" xmlns:xlink="http://www.w3.org/1999/xlink" width="480pt" height="480pt" viewBox="0 0 480 480" version="1.1">
<g id="surface596426">
<path style=" stroke:none;fill-rule:nonzero;fill:rgb(0%,0%,0%);fill-opacity:1;" d="M 200.328125 322.25 L 157.75 280 L 70 280 L 30 320.011719 L 100.96875 350.648438 L 129.351562 379.03125 L 160 450.011719 L 200 410.011719 Z M 200.328125 322.25 "/>
<path style=" stroke:none;fill-rule:nonzero;fill:rgb(90.196078%,49.411765%,13.333333%);fill-opacity:1;" d="M 129.351562 379.03125 L 100.96875 350.648438 L 157.75 279.671875 L 322.261719 115.171875 L 364.828125 157.75 L 200.328125 322.25 Z M 129.351562 379.03125 "/>
<path style=" stroke:none;fill-rule:nonzero;fill:rgb(90.196078%,49.411765%,13.333333%);fill-opacity:1;" d="M 322.261719 100.980469 C 350.640625 72.578125 450 30 450 30 C 450 30 407.421875 129.359375 379.019531 157.75 C 350.640625 186.128906 315.160156 207.421875 315.160156 207.421875 L 272.570312 164.839844 C 272.578125 164.839844 293.871094 129.359375 322.261719 100.980469 Z M 322.261719 100.980469 "/>
<path style=" stroke:none;fill-rule:nonzero;fill:rgb(72.54902%,38.823529%,9.411765%);fill-opacity:1;" d="M 129.351562 379.03125 L 200.339844 322.238281 L 315.171875 207.421875 C 315.171875 207.421875 350.648438 186.128906 379.03125 157.75 C 407.421875 129.359375 450 30 450 30 L 115.160156 364.839844 Z M 129.351562 379.03125 "/>
<path style=" stroke:none;fill-rule:nonzero;fill:rgb(72.54902%,38.823529%,9.411765%);fill-opacity:1;" d="M 272.589844 164.839844 L 315.164062 207.414062 L 293.871094 228.707031 L 251.296875 186.128906 Z M 272.589844 164.839844 "/>
<path style=" stroke:none;fill-rule:nonzero;fill:rgb(72.54902%,38.823529%,9.411765%);fill-opacity:1;" d="M 179.039062 258.390625 L 221.605469 300.957031 L 200.3125 322.25 L 157.746094 279.679688 Z M 179.039062 258.390625 "/>
<path style=" stroke:none;fill-rule:nonzero;fill:rgb(0%,0%,0%);fill-opacity:1;" d="M 293.863281 186.128906 L 315.152344 207.421875 L 293.863281 228.710938 L 272.570312 207.417969 Z M 293.863281 186.128906 "/>
<path style=" stroke:none;fill-rule:nonzero;fill:rgb(0%,0%,0%);fill-opacity:1;" d="M 200.320312 279.6875 L 221.597656 300.964844 L 200.3125 322.246094 L 179.035156 300.96875 Z M 200.320312 279.6875 "/>
</g>
</svg>
