<?xml version="1.0" encoding="UTF-8"?>
<svg xmlns="http://www.w3.org/2000/svg" xmlns:xlink="http://www.w3.org/1999/xlink" width="480pt" height="480pt" viewBox="0 0 480 480" version="1.1">
<g id="surface100507">
<path style=" stroke:none;fill-rule:nonzero;fill:rgb(0%,0%,0%);fill-opacity:1;" d="M 240 480 C 107.453125 480 0 372.546875 0 240 C 0 107.453125 107.453125 0 240 0 C 372.546875 0 480 107.453125 480 240 C 480 372.546875 372.546875 480 240 480 Z M 240 480 "/>
<path style=" stroke:none;fill-rule:nonzero;fill:rgb(47.45098%,33.333333%,28.235294%);fill-opacity:1;" d="M 240 80 C 240 80 176.046875 144 112.089844 144 C 112.089844 144 104.097656 328 241.382812 400 C 375.90625 328 367.914062 144 367.914062 144 C 367.90625 144 367.90625 144 367.894531 144 C 295.960938 144 240 80 240 80 Z M 240 80 "/>
<path style=" stroke:none;fill-rule:nonzero;fill:rgb(18.039216%,80%,44.313725%);fill-opacity:1;" d="M 334.992188 172.503906 C 293.929688 163.847656 260.144531 140.855469 239.160156 123.257812 C 217.558594 140.367188 183.441406 162.976562 145.015625 172.023438 C 148.710938 218.246094 165.664062 313.136719 241.199219 362.808594 C 314.703125 313.28125 331.34375 218.9375 334.992188 172.503906 Z M 334.992188 172.503906 "/>
<path style=" stroke:none;fill-rule:nonzero;fill:rgb(100%,100%,100%);fill-opacity:1;" d="M 239.160156 123.246094 C 217.558594 140.359375 183.441406 162.96875 145.015625 172.015625 C 145.558594 178.792969 146.441406 186.695312 147.6875 195.265625 C 185 185.816406 218.054688 163.953125 239.152344 147.246094 C 259.671875 164.464844 292.503906 186.753906 332.351562 195.816406 C 333.585938 187.238281 334.449219 179.3125 334.984375 172.496094 C 293.929688 163.839844 260.144531 140.847656 239.160156 123.246094 Z M 239.160156 123.246094 "/>
<path style=" stroke:none;fill-rule:nonzero;fill:rgb(18.039216%,80%,44.313725%);fill-opacity:1;" d="M 240 96 C 235.582031 96 232 99.582031 232 104 C 232 108.417969 235.582031 112 240 112 C 244.417969 112 248 108.417969 248 104 C 248 99.582031 244.417969 96 240 96 Z M 352 152 C 347.582031 152 344 155.582031 344 160 C 344 164.417969 347.582031 168 352 168 C 356.417969 168 360 164.417969 360 160 C 360 155.582031 356.417969 152 352 152 Z M 240 368 C 235.582031 368 232 371.582031 232 376 C 232 380.417969 235.582031 384 240 384 C 244.417969 384 248 380.417969 248 376 C 248 371.582031 244.417969 368 240 368 Z M 128 152 C 123.582031 152 120 155.582031 120 160 C 120 164.417969 123.582031 168 128 168 C 132.417969 168 136 164.417969 136 160 C 136 155.582031 132.417969 152 128 152 Z M 152 272 C 147.582031 272 144 275.582031 144 280 C 144 284.417969 147.582031 288 152 288 C 156.417969 288 160 284.417969 160 280 C 160 275.582031 156.417969 272 152 272 Z M 328 272 C 323.582031 272 320 275.582031 320 280 C 320 284.417969 323.582031 288 328 288 C 332.417969 288 336 284.417969 336 280 C 336 275.582031 332.417969 272 328 272 Z M 328 272 "/>
</g>
</svg>
