<?xml version="1.0" encoding="UTF-8"?>
<svg xmlns="http://www.w3.org/2000/svg" xmlns:xlink="http://www.w3.org/1999/xlink" width="480pt" height="480pt" viewBox="0 0 480 480" version="1.1">
<g id="surface452025">
<path style=" stroke:none;fill-rule:nonzero;fill:rgb(32.941176%,43.137255%,47.843137%);fill-opacity:1;" d="M 160 440 L 160 405 C 160 391 171 380 185 380 C 199 380 210 391 210 405 L 210 440 Z M 320 440 L 320 405 C 320 391 309 380 295 380 C 281 380 270 391 270 405 L 270 440 Z M 320 440 "/>
<path style=" stroke:none;fill-rule:nonzero;fill:rgb(21.568627%,27.843137%,30.980392%);fill-opacity:1;" d="M 295 380 C 281 380 270 391 270 405 L 270 430 L 320 413 L 320 405 C 320 391 309 380 295 380 Z M 185 380 C 171 380 160 391 160 405 L 160 413 L 210 430 L 210 405 C 210 391 199 380 185 380 Z M 185 380 "/>
<path style=" stroke:none;fill-rule:nonzero;fill:rgb(20.392157%,59.607843%,85.882353%);fill-opacity:1;" d="M 420 360 L 240 420 L 60 360 L 60 280 L 420 280 Z M 70 130 L 50 130 L 50 240 L 70 240 Z M 40 230 L 40 290 C 46 293 53 296 60 296 C 67 296 74 294 80 290 L 80 230 Z M 430 130 L 410 130 L 410 240 L 430 240 Z M 400 230 L 400 290 C 406 293 413 296 420 296 C 427 296 434 294 440 290 L 440 230 Z M 280 150 C 280 100 240 40 240 40 C 240 40 200 102 200 150 C 200 198 200 260 200 260 L 280 260 C 280 260 280 200 280 150 Z M 280 150 "/>
<path style=" stroke:none;fill-rule:nonzero;fill:rgb(18.039216%,80%,44.313725%);fill-opacity:1;" d="M 60 210 C 71 210 80 219 80 230 C 80 241 71 250 60 250 C 49 250 40 241 40 230 C 40 219 49 210 60 210 Z M 400 230 C 400 241 409 250 420 250 C 431 250 440 241 440 230 C 440 219 431 210 420 210 C 409 210 400 219 400 230 Z M 400 264 L 400 370 C 400 381 409 390 420 390 C 431 390 440 381 440 370 L 440 264 C 434 267 427 270 420 270 C 413 270 406 268 400 264 Z M 40 264 L 40 370 C 40 381 49 390 60 390 C 71 390 80 381 80 370 L 80 264 C 74 268 67 270 60 270 C 53 270 46 268 40 264 Z M 307 250 L 250 250 L 250 190 C 250 185 245 180 240 180 C 235 180 230 185 230 190 L 230 250 L 173 250 C 166 250 160 256 160 263 L 160 317 C 160 325 164 332 172 336 L 240 370 L 308 336 C 315 332 320 325 320 317 L 320 263 C 320 256 314 250 307 250 Z M 307 250 "/>
<path style=" stroke:none;fill-rule:nonzero;fill:rgb(10.196078%,13.72549%,49.411765%);fill-opacity:1;" d="M 280 313 C 280 335 200 335 200 313 C 200 291 218 273 240 273 C 262 273 280 291 280 313 Z M 280 313 "/>
<path style=" stroke:none;fill-rule:nonzero;fill:rgb(94.509804%,76.862745%,5.882353%);fill-opacity:1;" d="M 70 120 L 70 140 L 50 140 L 50 120 C 50 114 54 110 60 110 C 66 110 70 114 70 120 Z M 420 110 C 414 110 410 114 410 120 L 410 140 L 430 140 L 430 120 C 430 114 426 110 420 110 Z M 420 110 "/>
</g>
</svg>
