<svg xmlns="http://www.w3.org/2000/svg" width="480" height="480" viewBox="0 0 48 48"><path fill="#FFD54F" d="M42.584,4c0,0-9.203,2.124-14.158,7.08c-0.373,0.374-0.662,0.769-0.89,1.175l8.21,8.211c0.406-0.228,0.802-0.516,1.175-0.89C41.877,14.62,44,5.416,44,5.416L42.584,4z"/><path fill="#FFECB3" d="M41.165,6.835L41.165,6.835c-2.62,0.77-7.915,2.251-11.324,5.661l1.417,1.415C33.167,12.003,38.73,7.825,41.165,6.835z"/><path fill="#9E9D24" d="M18.867,39.046c0.781-0.783,2.05-0.783,2.831,0l12.391-12.391l0.708-4.955l2.124-2.124l-8.495-8.496l-2.124,2.124l-4.955,0.707L8.956,26.301c0.781,0.782,0.781,2.051,0,2.833c-0.782,0.78-2.05,0.78-2.832,0L4,31.257L16.743,44l2.124-2.123C18.085,41.095,18.085,39.827,18.867,39.046z"/><path fill="#827717" d="M18.867,39.046c0.781-0.783,2.05-0.783,2.831,0L8.956,26.301c0.781,0.782,0.781,2.051,0,2.833c-0.782,0.78-2.05,0.78-2.832,0l12.743,12.743C18.085,41.095,18.085,39.827,18.867,39.046z"/><path fill="#C0CA33" d="M16.981 14.178H18.984V31.7H16.981z" transform="rotate(45.001 17.983 22.939)"/><path fill="#C0CA33" d="M6.892 31.525H8.895V34.528999999999996H6.892z" transform="rotate(45.02 7.894 33.025)"/><path fill="#C0CA33" d="M28.486 12.765H30.488V15.768H28.486z" transform="rotate(45.02 29.485 14.265)"/><path fill="#AFB42B" d="M26.302 13.204L21.347 13.911 34.089 26.655 34.797 21.7z"/><path fill="#DCE775" d="M23.47 16.036L27.718 14.62 29.133 16.036 24.886 17.452z"/></svg>