<svg xmlns="http://www.w3.org/2000/svg" width="480" height="480" viewBox="0 0 48 48"><path fill="#3A3205" d="M23 16.999c0 0 3.097 0 4 0 2.455 0 5 1 5 1s-2.545 1-5 1c-.903 0-4 0-4 0V16.999zM23 28.999c0 0 3.097 0 4 0 2.455 0 5 1 5 1s-2.545 1-5 1c-.903 0-4 0-4 0V28.999zM19 34.999c0 0 3.097 0 4 0 2 0 5 1 5 1s-2.545 1-5 1c-.903 0-4 0-4 0V34.999zM19 10.999c0 0 3.097 0 4 0 2.455 0 5 1 5 1s-2.545 1-5 1c-.903 0-4 0-4 0V10.999z"/><g><path fill="#63590D" d="M8 14.005L5 14.005 5 21.004 10 22 10 26 5 27 5 33.999 8 33.999 12 26.999 12 20.999zM15 5L15 43 18 40.999 29 26 29 22 18 6.999z"/><path fill="#63590D" d="M3 23H14V24.999H3z"/></g><g><path fill="#827717" d="M15 4.999H22V6.999H15zM15 40.999H22V42.999H15zM36 20.999h-3c-2 .001-5-1-7-1 0 0-9 0-12 0-3.354 0-7.176 1.537-8.509 3.001H14v1.999H5.492C6.826 26.463 10.646 28 14 28h12c2 0 5-1 7-1.001s3 0 3 0c3 0 9-2.999 9-2.999S39 20.999 36 20.999z"/></g><path d="M30,25.999h3c2,0.001,4-1.001,4-2s-2-1.999-4-2h-3c-2,0.001-4,0.999-4,2S28,26,30,25.999z"/></svg>