<?xml version="1.0" encoding="UTF-8"?>
<svg xmlns="http://www.w3.org/2000/svg" xmlns:xlink="http://www.w3.org/1999/xlink" width="512pt" height="512pt" viewBox="0 0 512 512" version="1.1">
<g id="surface244695">
<path style=" stroke:none;fill-rule:nonzero;fill:rgb(100%,100%,100%);fill-opacity:1;" d="M 331.679688 240 C 348.121094 215.695312 357.078125 187.101562 357.441406 157.761719 C 357.550781 154.261719 359.925781 151.242188 363.300781 150.304688 C 366.671875 149.371094 370.261719 150.738281 372.160156 153.679688 C 376.375 160.507812 380.292969 167.492188 383.921875 174.640625 C 404.648438 215.636719 415.417969 260.941406 415.359375 306.878906 L 415.359375 311.199219 C 415.359375 401.921875 344.800781 479.199219 254.078125 482.480469 C 208.675781 484.128906 164.554688 467.25 131.847656 435.71875 C 99.136719 404.1875 80.652344 360.710938 80.640625 315.28125 C 80.640625 226.398438 142.480469 208.238281 147.28125 124.878906 C 147.453125 122.375 148.796875 120.09375 150.902344 118.726562 C 153.011719 117.359375 155.640625 117.058594 158 117.921875 C 177.199219 125.359375 216.558594 145.761719 222.878906 189.921875 "/>
<path style=" stroke:none;fill-rule:nonzero;fill:rgb(100%,100%,100%);fill-opacity:1;" d="M 410.078125 353.761719 C 392.546875 429.144531 325.464844 482.5625 248.070312 482.773438 C 170.671875 482.984375 103.300781 429.925781 85.359375 354.640625 L 108.480469 346.640625 C 124.003906 341.433594 140.953125 348.785156 147.761719 363.679688 C 166.152344 402.390625 205.285156 426.960938 248.140625 426.703125 C 291 426.449219 329.835938 401.410156 347.761719 362.480469 C 354.636719 347.800781 371.410156 340.582031 386.800781 345.679688 Z M 410.078125 353.761719 "/>
<path style=" stroke:none;fill-rule:nonzero;fill:rgb(100%,100%,100%);fill-opacity:1;" d="M 192 200 C 199.441406 155.359375 206.078125 63.519531 193.441406 17.921875 C 192.550781 14.789062 193.648438 11.433594 196.214844 9.433594 C 198.777344 7.429688 202.296875 7.179688 205.121094 8.800781 C 311.359375 67.359375 355.121094 178.320312 323.359375 281.761719 "/>
<path style=" stroke:none;fill-rule:nonzero;fill:rgb(100%,100%,100%);fill-opacity:1;" d="M 320.960938 289.441406 C 312.429688 289.375 304.402344 285.402344 299.175781 278.660156 C 293.949219 271.921875 292.101562 263.15625 294.160156 254.878906 C 313.839844 171.199219 272.398438 82.480469 196.398438 31.359375 C 195.640625 26.804688 194.65625 22.292969 193.441406 17.839844 C 192.550781 14.710938 193.648438 11.355469 196.214844 9.351562 C 198.777344 7.351562 202.296875 7.101562 205.121094 8.71875 C 305.699219 62.730469 354.179688 180.21875 320.960938 289.441406 Z M 320.960938 289.441406 "/>
<path style=" stroke:none;fill-rule:nonzero;fill:rgb(55.294118%,42.352941%,62.352941%);fill-opacity:1;" d="M 391.039062 171.039062 C 387.359375 163.679688 383.039062 156.480469 378.960938 149.441406 C 375.238281 143.425781 368.007812 140.566406 361.179688 142.414062 C 354.351562 144.257812 349.546875 150.371094 349.359375 157.441406 C 348.984375 173.109375 346.289062 188.640625 341.359375 203.519531 C 337.28125 121.839844 289.601562 46.238281 208.960938 1.679688 C 203.3125 -1.476562 196.320312 -0.917969 191.242188 3.089844 C 186.164062 7.101562 184 13.773438 185.761719 20 C 196.125 54.710938 198.261719 91.359375 192 127.039062 C 182.5 120.222656 172.179688 114.632812 161.28125 110.398438 C 156.527344 108.613281 151.207031 109.1875 146.949219 111.949219 C 142.6875 114.710938 139.988281 119.332031 139.679688 124.398438 C 137.519531 162.398438 123.039062 185.839844 107.679688 210.640625 C 90.640625 238.238281 73.039062 266.640625 73.039062 315.28125 C 73.039062 411.972656 151.308594 490.417969 248 490.640625 L 254.480469 490.640625 C 347.679688 487.359375 423.441406 406.878906 423.441406 311.359375 L 423.441406 307.039062 C 423.558594 259.78125 412.453125 213.167969 391.039062 171.039062 Z M 407.039062 311.199219 C 407.039062 398.238281 338.160156 471.199219 253.441406 474.480469 C 210.269531 475.953125 168.347656 459.839844 137.28125 429.828125 C 106.210938 399.816406 88.65625 358.476562 88.640625 315.28125 C 88.640625 271.359375 104.640625 245.921875 120.640625 219.28125 C 136.640625 193.839844 152.640625 167.601562 154.878906 125.601562 C 174.800781 133.601562 209.121094 152.078125 214.71875 191.121094 C 215.339844 195.539062 219.421875 198.617188 223.839844 198 C 228.257812 197.382812 231.339844 193.296875 230.71875 188.878906 C 228.019531 170.15625 219.285156 152.824219 205.839844 139.519531 C 214.320312 98.582031 212.753906 56.199219 201.28125 16 C 287.601562 64 333.601562 149.121094 324.320312 237.519531 C 323.835938 238.820312 323.695312 240.226562 323.921875 241.601562 C 322.367188 254.503906 319.691406 267.246094 315.921875 279.679688 C 314.773438 283.847656 317.140625 288.171875 321.273438 289.449219 C 325.402344 290.722656 329.796875 288.488281 331.199219 284.398438 C 335.441406 270.667969 338.4375 256.585938 340.160156 242.320312 C 356.421875 217.234375 365.246094 188.054688 365.601562 158.160156 C 369.679688 164.800781 373.601562 171.679688 377.039062 178.558594 C 397.285156 218.414062 407.785156 262.5 407.679688 307.199219 Z M 407.039062 311.199219 "/>
<path style=" stroke:none;fill-rule:nonzero;fill:rgb(55.294118%,42.352941%,62.352941%);fill-opacity:1;" d="M 267.679688 107.441406 C 265.824219 108.46875 264.449219 110.191406 263.867188 112.234375 C 263.28125 114.273438 263.53125 116.464844 264.558594 118.320312 C 276.917969 140.417969 285.285156 164.519531 289.28125 189.519531 C 289.914062 193.433594 293.316406 196.292969 297.28125 196.238281 L 298.558594 196.238281 C 302.90625 195.542969 305.871094 191.46875 305.199219 187.121094 C 300.910156 160.265625 291.917969 134.375 278.640625 110.640625 C 277.625 108.746094 275.894531 107.34375 273.832031 106.742188 C 271.769531 106.136719 269.554688 106.390625 267.679688 107.441406 Z M 246.160156 65.519531 C 243.136719 62.554688 238.328125 62.457031 235.1875 65.300781 C 232.050781 68.140625 231.667969 72.9375 234.320312 76.238281 C 238.398438 80.71875 242.320312 85.519531 246.078125 90.320312 C 248.863281 93.5 253.640625 93.964844 256.988281 91.382812 C 260.332031 88.796875 261.09375 84.058594 258.71875 80.558594 C 254.800781 75.359375 250.558594 70.320312 246.160156 65.519531 Z M 248 408 C 243.582031 408 240 411.582031 240 416 L 240 432 C 240 436.417969 243.582031 440 248 440 C 252.417969 440 256 436.417969 256 432 L 256 416 C 256 411.582031 252.417969 408 248 408 Z M 294.398438 405.441406 C 293.453125 402.621094 291.019531 400.558594 288.082031 400.085938 C 285.144531 399.617188 282.1875 400.816406 280.40625 403.199219 C 278.625 405.582031 278.316406 408.757812 279.601562 411.441406 L 285.601562 426.238281 C 286.8125 429.285156 289.761719 431.28125 293.039062 431.28125 C 295.695312 431.28125 298.175781 429.96875 299.667969 427.773438 C 301.15625 425.578125 301.460938 422.785156 300.480469 420.320312 Z M 326 381.28125 C 324.277344 378.574219 321.101562 377.164062 317.9375 377.691406 C 314.773438 378.21875 312.230469 380.582031 311.476562 383.703125 C 310.726562 386.820312 311.90625 390.085938 314.480469 392 L 325.601562 403.519531 C 328.671875 406.699219 333.738281 406.789062 336.921875 403.71875 C 340.101562 400.648438 340.191406 395.582031 337.121094 392.398438 Z M 360.878906 353.519531 L 346.238281 347.039062 C 342.199219 345.25 337.46875 347.078125 335.679688 351.121094 C 333.890625 355.164062 335.71875 359.890625 339.761719 361.679688 L 354.398438 368 C 355.429688 368.46875 356.546875 368.714844 357.679688 368.71875 C 361.4375 368.703125 364.675781 366.074219 365.464844 362.398438 C 366.253906 358.726562 364.378906 354.996094 360.960938 353.441406 Z M 212 401.039062 C 207.914062 399.390625 203.261719 401.359375 201.601562 405.441406 L 195.601562 420.238281 C 194.316406 422.921875 194.625 426.097656 196.40625 428.480469 C 198.1875 430.867188 201.144531 432.0625 204.082031 431.59375 C 207.019531 431.121094 209.453125 429.058594 210.398438 426.238281 L 216.398438 411.441406 C 218.046875 407.351562 216.082031 402.703125 212 401.039062 Z M 170 381.28125 L 158.878906 392.800781 C 155.808594 395.980469 155.898438 401.050781 159.078125 404.121094 C 162.261719 407.191406 167.328125 407.101562 170.398438 403.921875 L 181.519531 392 C 184.589844 388.820312 184.5 383.75 181.320312 380.679688 C 178.140625 377.609375 173.070312 377.699219 170 380.878906 Z M 160 351.039062 C 159.140625 349.097656 157.546875 347.578125 155.566406 346.8125 C 153.585938 346.046875 151.382812 346.097656 149.441406 346.960938 L 134.800781 353.441406 C 131.378906 354.996094 129.507812 358.726562 130.292969 362.398438 C 131.082031 366.074219 134.324219 368.703125 138.078125 368.71875 C 139.292969 368.75 140.496094 368.503906 141.601562 368 L 156.238281 361.519531 C 160.117188 359.613281 161.78125 354.976562 160 351.039062 Z M 160 351.039062 "/>
</g>
</svg>
