<svg xmlns="http://www.w3.org/2000/svg" viewBox="0 0 48 48" width="480" height="480"><path fill="#827717" d="M9.8 44c3.4 0 7.3-1.8 9.4-3.8 0 0 8.5-8.5 10-10L17.8 18.9c-1.4 1.4-10 10-10 10C5.8 30.9 4 34.9 4 38.2L9.8 44zM40.5 13.2l-5.7-5.7L34.1 4 26 12l1 4.7 4.3 4.3 4.7 1 8-8.1L40.5 13.2zM34 19.6l-1.3 0-4.2-4.2V14h4.1c.8 0 1.5.7 1.5 1.5V19.6z"/><path fill="#263238" d="M16.1 37.6l-6.4-6.4 2.1-2.1 6.4 6.4L16.1 37.6zM19.2 31.6l-5-5 2.1-2.1 5 5L19.2 31.6z"/><path fill="#63590d" d="M3.8 41.4H7.3V43.4H3.8z" transform="rotate(-45.106 5.583 42.42)"/><path fill="#63590d" d="M17.8 18.9l11.3 11.3c1.4-1.4 2.1-9.2 2.1-9.2L27 16.8C27 16.8 19.2 17.5 17.8 18.9zM32 18.9L29.1 16l.7-.7 2.8 2.8L32 18.9zM28.4 14L28.4 14l6.4-6.5L34.1 4 26 12l1 4.7 1.4-1.4V14zM34 19.6L34 19.6 34 19.6l6.5-6.4 3.5.7L36 22l-4.7-1 1.4-1.4L34 19.6z"/><path fill="#ffd600" d="M9.8 44L4 38.2c0 1.7.4 3.2 1.5 4.3C6.5 43.6 8.1 44 9.8 44zM20.9 17.7l9.5 9.5c.2-.8.3-1.6.5-2.4l-7.5-7.5C22.4 17.4 21.6 17.5 20.9 17.7z"/></svg>