<svg xmlns="http://www.w3.org/2000/svg" viewBox="0 0 48 48" width="480" height="480"><path fill="#546E7A" d="M16,44v-3.5c0-1.4,1.1-2.5,2.5-2.5s2.5,1.1,2.5,2.5V44H16z M32,44v-3.5c0-1.4-1.1-2.5-2.5-2.5S27,39.1,27,40.5V44H32z"/><path fill="#37474F" d="M29.5 38c-1.4 0-2.5 1.1-2.5 2.5V43l5-1.7v-.8C32 39.1 30.9 38 29.5 38zM18.5 38c-1.4 0-2.5 1.1-2.5 2.5v.8l5 1.7v-2.5C21 39.1 19.9 38 18.5 38z"/><path fill="#7986CB" d="M42,36l-18,6L6,36v-8h36V36z M7,13H5v11h2V13z M4,23v6c0.6,0.3,1.3,0.6,2,0.6s1.4-0.2,2-0.6v-6H4z M43,13h-2v11h2V13z M40,23v6c0.6,0.3,1.3,0.6,2,0.6s1.4-0.2,2-0.6v-6H40z M28,15c0-5-4-11-4-11s-4,6.2-4,11s0,11,0,11h8C28,26,28,20,28,15z"/><path fill="#C5CAE9" d="M6,21c1.1,0,2,0.9,2,2s-0.9,2-2,2s-2-0.9-2-2S4.9,21,6,21z M40,23c0,1.1,0.9,2,2,2s2-0.9,2-2s-0.9-2-2-2S40,21.9,40,23z M40,26.4V37c0,1.1,0.9,2,2,2s2-0.9,2-2V26.4c-0.6,0.3-1.3,0.6-2,0.6S40.6,26.8,40,26.4z M4,26.4V37c0,1.1,0.9,2,2,2s2-0.9,2-2V26.4C7.4,26.8,6.7,27,6,27S4.6,26.8,4,26.4z M30.7,25H25v-6c0-0.5-0.5-1-1-1s-1,0.5-1,1v6h-5.7c-0.7,0-1.3,0.6-1.3,1.3v5.4c0,0.8,0.4,1.5,1.2,1.9L24,37l6.8-3.4c0.7-0.4,1.2-1.1,1.2-1.9v-5.4C32,25.6,31.4,25,30.7,25z"/><path fill="#1A237E" d="M28,31.3c0,2.2-8,2.2-8,0s1.8-4,4-4S28,29.1,28,31.3z"/><path fill="#FF3D00" d="M7,12v2H5v-2c0-0.6,0.4-1,1-1S7,11.4,7,12z M42,11c-0.6,0-1,0.4-1,1v2h2v-2C43,11.4,42.6,11,42,11z"/></svg>