<svg xmlns="http://www.w3.org/2000/svg" viewBox="0 0 100 100" width="500" height="500"><path fill="#c7ede6" d="M87.215,56.71C88.35,54.555,89,52.105,89,49.5c0-6.621-4.159-12.257-10.001-14.478 C78.999,35.015,79,35.008,79,35c0-11.598-9.402-21-21-21c-9.784,0-17.981,6.701-20.313,15.757C36.211,29.272,34.638,29,33,29 c-7.692,0-14.023,5.793-14.89,13.252C12.906,43.353,9,47.969,9,53.5C9,59.851,14.149,65,20.5,65c0.177,0,0.352-0.012,0.526-0.022 C21.022,65.153,21,65.324,21,65.5C21,76.822,30.178,86,41.5,86c6.437,0,12.175-2.972,15.934-7.614C59.612,80.611,62.64,82,66,82 c4.65,0,8.674-2.65,10.666-6.518C77.718,75.817,78.837,76,80,76c6.075,0,11-4.925,11-11C91,61.689,89.53,58.727,87.215,56.71z"/><path fill="#fdfcef" d="M69,74h-5.75c-2.485,0.75-4.5-1.265-4.5-3.75c0-2.333,1.782-4.229,4.055-4.455 c-0.022-0.181-0.055-0.358-0.055-0.545c0-2.485,2.015-4.5,4.5-4.5c1.438,0,2.703,0.686,3.527,1.736 c0.14-2.636,2.302-4.736,4.973-4.736c2.761,0,5,2.239,5,5c0,0.446-0.077,0.87-0.187,1.282c0.642-0.777,1.6-1.282,2.687-1.282 c1.781,0,3.234,1.335,3.455,3.055c0.181-0.022,0.358-0.055,0.545-0.055c2.485,0,4.5,2.015,4.5,4.5s-2.015,4.5-4.5,3.75h-9.5H72v1 h-3V74z"/><path fill="#472b29" d="M75.5,57c3.033,0,5.5,2.467,5.5,5.5c0,0.016,0,0.031,0,0.047C81.602,62.192,82.29,62,83,62 c1.831,0,3.411,1.261,3.858,3.005C86.905,65.002,86.952,65,87,65c3.099,0,5.549,2.834,4.893,6.047 C91.413,73.398,89.204,75,86.804,75l-14.679,0c-0.276,0-0.5-0.224-0.5-0.5c0-0.276,0.224-0.5,0.5-0.5h14.718 c1.92,0,3.687-1.282,4.071-3.163C91.439,68.267,89.479,66,87,66c-0.117,0-0.23,0.017-0.343,0.032l-0.141,0.019 c-0.021,0.003-0.041,0.004-0.062,0.004c-0.246,0-0.462-0.185-0.495-0.437C85.768,64.125,84.496,63,83,63 c-0.885,0-1.723,0.401-2.301,1.1c-0.098,0.118-0.241,0.182-0.386,0.182c-0.078,0-0.156-0.018-0.228-0.056 c-0.209-0.107-0.314-0.346-0.254-0.573c0.16-0.6,0.202-1.069,0.147-1.549c-0.24-2.127-1.959-3.909-4.092-4.088 c-2.551-0.215-4.725,1.728-4.859,4.246c-0.011,0.208-0.15,0.387-0.349,0.45c-0.05,0.016-0.101,0.024-0.152,0.024 c-0.15,0-0.296-0.069-0.392-0.192C69.362,61.563,68.221,61,67,61c-2.206,0-4,1.794-4,4c0,0.117,0.017,0.23,0.032,0.343 l0.019,0.141c0.016,0.134-0.022,0.268-0.106,0.373c-0.084,0.105-0.207,0.172-0.34,0.185c-2.352,0.234-4.042,2.429-3.504,4.865 C59.509,72.76,61.275,74,63.173,74l5.952,0c0.276,0,0.5,0.224,0.5,0.5c0,0.276-0.224,0.5-0.5,0.5h-5.938 c-2.467,0-4.708-1.704-5.115-4.138c-0.462-2.763,1.344-5.22,3.931-5.74C62.001,65.082,62,65.041,62,65c0-2.757,2.243-5,5-5 c1.176,0,2.293,0.416,3.183,1.164C70.781,58.76,72.945,57,75.5,57L75.5,57z"/><path fill="#472b29" d="M77.25 64.25c1.403 0 2.609.999 2.913 2.341.367-.222.786-.341 1.212-.341 1.202 0 2.198.897 2.353 2.068.203-.045.396-.068.585-.068 1.529 0 2.811 1.2 2.918 2.732.009.138-.094.257-.232.267-.006 0-.012 0-.018 0-.13 0-.24-.101-.249-.232-.089-1.271-1.151-2.268-2.419-2.268-.229 0-.47.042-.738.127-.022.007-.045.01-.067.01-.055 0-.11-.02-.156-.054-.064-.047-.102-.129-.102-.209 0-1.034-.841-1.875-1.875-1.875-.447 0-.885.168-1.231.473-.047.041-.106.063-.165.063-.032 0-.063-.006-.093-.019-.088-.035-.148-.117-.155-.212-.102-1.292-1.191-2.305-2.479-2.305-.208 0-.425.034-.682.107-.023.007-.047.01-.07.01-.109 0-.207-.073-.239-.182-.038-.133.039-.271.172-.309C76.733 64.29 76.994 64.25 77.25 64.25L77.25 64.25zM63.367 65.75c1.326 0 2.508.897 2.874 2.182.038.133-.039.271-.172.309-.023.007-.046.01-.068.01-.109 0-.209-.072-.24-.182-.305-1.071-1.289-1.818-2.393-1.818-.117 0-.23.014-.342.029-.012.002-.023.003-.035.003-.121 0-.229-.092-.246-.217-.019-.137.077-.263.214-.281C63.092 65.766 63.228 65.75 63.367 65.75L63.367 65.75z"/><path fill="#fff" d="M14.405 53H4.5C4.224 53 4 52.776 4 52.5S4.224 52 4.5 52h9.905c.276 0 .5.224.5.5S14.682 53 14.405 53zM17.5 53h-1c-.276 0-.5-.224-.5-.5s.224-.5.5-.5h1c.276 0 .5.224.5.5S17.777 53 17.5 53zM22.491 55H13.5c-.276 0-.5-.224-.5-.5s.224-.5.5-.5h8.991c.276 0 .5.224.5.5S22.767 55 22.491 55zM11.5 55h-1c-.276 0-.5-.224-.5-.5s.224-.5.5-.5h1c.276 0 .5.224.5.5S11.777 55 11.5 55zM8.5 55h-2C6.224 55 6 54.776 6 54.5S6.224 54 6.5 54h2C8.776 54 9 54.224 9 54.5S8.777 55 8.5 55zM14.5 57h-2c-.276 0-.5-.224-.5-.5s.224-.5.5-.5h2c.276 0 .5.224.5.5S14.776 57 14.5 57zM17.5 48c-.177 0-.823 0-1 0-.276 0-.5.224-.5.5 0 .276.224.5.5.5.177 0 .823 0 1 0 .276 0 .5-.224.5-.5C18 48.224 17.776 48 17.5 48zM17.5 50c-.177 0-4.823 0-5 0-.276 0-.5.224-.5.5 0 .276.224.5.5.5.177 0 4.823 0 5 0 .276 0 .5-.224.5-.5C18 50.224 17.776 50 17.5 50zM22.5 52c-.177 0-2.823 0-3 0-.276 0-.5.224-.5.5 0 .276.224.5.5.5.177 0 2.823 0 3 0 .276 0 .5-.224.5-.5C23 52.224 22.776 52 22.5 52z"/><g><path fill="#fff" d="M68 23H58c-.276 0-.5-.224-.5-.5S57.724 22 58 22h10c.276 0 .5.224.5.5S68.276 23 68 23zM72 23h-2c-.276 0-.5-.224-.5-.5S69.724 22 70 22h2c.276 0 .5.224.5.5S72.276 23 72 23zM77 25H67c-.276 0-.5-.224-.5-.5S66.724 24 67 24h10c.276 0 .5.224.5.5S77.277 25 77 25zM65 25h-1c-.276 0-.5-.224-.5-.5S63.724 24 64 24h1c.276 0 .5.224.5.5S65.276 25 65 25zM61.875 25H60c-.276 0-.5-.224-.5-.5S59.724 24 60 24h1.875c.276 0 .5.224.5.5S62.151 25 61.875 25zM71 21h-5c-.276 0-.5-.224-.5-.5S65.724 20 66 20h5c.276 0 .5.224.5.5S71.277 21 71 21zM68 27h-2c-.276 0-.5-.224-.5-.5S65.724 26 66 26h2c.276 0 .5.224.5.5S68.276 27 68 27z"/></g><g><path fill="#fdfcef" d="M21.25,42.5c0,0-1.567,0-3.5,0s-3.5-1.567-3.5-3.5c0-1.781,1.335-3.234,3.055-3.455 C17.277,35.366,17.25,35.187,17.25,35c0-1.933,1.567-3.5,3.5-3.5c1.032,0,1.95,0.455,2.59,1.165 c0.384-1.808,1.987-3.165,3.91-3.165c2.209,0,4,1.791,4,4c0,0.191-0.03,0.374-0.056,0.558c0.428-0.344,0.965-0.558,1.556-0.558 c1.228,0,2.245,0.887,2.455,2.055c0.179-0.028,0.358-0.055,0.545-0.055c1.933,0,3.5,1.567,3.5,3.5s-1.567,3.5-3.5,3.5 s-7.5,0-7.5,0V43h-7V42.5z"/><path fill="#472b29" d="M19.5 38c.138 0 .25-.112.25-.25 0-1.223-.995-2.218-2.218-2.218-.034.009-.737-.001-1.244.136-.133.036-.212.173-.176.306.036.134.173.213.306.176.444-.12 1.1-.12 1.113-.118.948 0 1.719.771 1.719 1.718C19.25 37.888 19.362 38 19.5 38zM26.25 42A.5.5 0 1 0 26.25 43 .5.5 0 1 0 26.25 42z"/><path fill="#472b29" d="M17.75,43h3.5c0.276,0,0.5-0.224,0.5-0.5s-0.224-0.5-0.5-0.5h-3.5c-1.654,0-3-1.346-3-3 c0-1.496,1.125-2.768,2.618-2.959c0.134-0.018,0.255-0.088,0.336-0.196s0.115-0.244,0.094-0.377 C17.775,35.314,17.75,35.16,17.75,35c0-1.654,1.346-3,3-3c0.85,0,1.638,0.355,2.219,1c0.125,0.139,0.321,0.198,0.5,0.148 c0.182-0.049,0.321-0.195,0.36-0.379C24.17,31.165,25.609,30,27.25,30c1.93,0,3.5,1.57,3.5,3.5c0,0.143-0.021,0.28-0.041,0.418 c-0.029,0.203,0.063,0.438,0.242,0.54c0.179,0.102,0.396,0.118,0.556-0.01C31.872,34.155,32.301,34,32.75,34 c0.966,0,1.792,0.691,1.963,1.644c0.048,0.267,0.296,0.446,0.569,0.405C35.436,36.025,35.59,36,35.75,36c1.654,0,3,1.346,3,3 s-1.346,3-3,3h-7.5c-0.276,0-0.5,0.224-0.5,0.5s0.224,0.5,0.5,0.5h7.5c2.206,0,4-1.794,4-4s-1.794-4-4-4 c-0.059,0-0.116,0.002-0.174,0.006C35.162,33.82,34.039,33,32.75,33c-0.349,0-0.689,0.061-1.011,0.18 C31.574,30.847,29.624,29,27.25,29c-1.831,0-3.466,1.127-4.153,2.774C22.417,31.276,21.595,31,20.75,31c-2.206,0-4,1.794-4,4 c0,0.048,0.001,0.095,0.004,0.142C15.011,35.59,13.75,37.169,13.75,39C13.75,41.206,15.544,43,17.75,43z"/><path fill="#472b29" d="M23.25,42c0.159,0,0.841,0,1,0c0.276,0,0.5,0.224,0.5,0.5c0,0.276-0.224,0.5-0.5,0.5 c-0.159,0-0.841,0-1,0c-0.276,0-0.5-0.224-0.5-0.5C22.75,42.224,22.974,42,23.25,42z"/></g><g><path fill="#f1bc19" d="M78.685 41.701L79.694 43.746 81.951 44.074 80.318 45.665 80.703 47.912 78.685 46.851 76.667 47.912 77.053 45.665 75.42 44.074 77.676 43.746z"/><path fill="#472b29" d="M80.704,48.309c-0.064,0-0.126-0.015-0.185-0.045L78.686,47.3l-1.833,0.964 c-0.134,0.071-0.295,0.059-0.419-0.029c-0.121-0.088-0.183-0.239-0.158-0.389l0.351-2.042l-1.484-1.445 c-0.109-0.107-0.147-0.263-0.101-0.407c0.047-0.144,0.17-0.248,0.32-0.27l2.051-0.298l0.918-1.857c0.133-0.27,0.579-0.27,0.711,0 l0.918,1.857l2.05,0.298c0.15,0.023,0.273,0.126,0.32,0.27c0.047,0.144,0.008,0.302-0.101,0.407l-1.483,1.445l0.351,2.042 c0.025,0.15-0.035,0.301-0.158,0.389C80.867,48.283,80.786,48.309,80.704,48.309z M78.685,46.455c0.064,0,0.127,0.015,0.185,0.045 l1.306,0.686l-0.25-1.454c-0.023-0.129,0.02-0.26,0.115-0.353l1.056-1.03l-1.46-0.212c-0.128-0.019-0.24-0.101-0.298-0.217 l-0.653-1.323l-0.653,1.323c-0.058,0.117-0.169,0.199-0.298,0.217l-1.461,0.212l1.057,1.03c0.094,0.092,0.136,0.222,0.115,0.353 l-0.25,1.454L78.5,46.5C78.558,46.469,78.623,46.455,78.685,46.455z"/></g><g><path fill="#f1bc19" d="M47.008 23.751L48.326 26.424 51.275 26.852 49.141 28.932 49.645 31.87 47.008 30.483 44.369 31.87 44.873 28.932 42.739 26.852 45.688 26.424z"/><path fill="#472b29" d="M49.645,32.266c-0.064,0-0.126-0.015-0.185-0.045l-2.454-1.289l-2.452,1.289 c-0.135,0.071-0.296,0.059-0.419-0.029c-0.121-0.088-0.183-0.239-0.158-0.389l0.468-2.73l-1.985-1.934 c-0.109-0.107-0.147-0.263-0.101-0.407c0.047-0.143,0.17-0.248,0.32-0.27l2.744-0.399l1.226-2.484c0.133-0.27,0.579-0.27,0.711,0 l1.227,2.484l2.743,0.399c0.15,0.023,0.273,0.126,0.32,0.27c0.047,0.144,0.008,0.302-0.101,0.407l-1.984,1.934l0.468,2.73 c0.025,0.15-0.035,0.301-0.158,0.389C49.809,32.24,49.728,32.266,49.645,32.266z M47.007,30.087c0.064,0,0.126,0.015,0.185,0.045 l1.926,1.012L48.75,29c-0.023-0.129,0.02-0.26,0.115-0.353l1.557-1.519l-2.153-0.312c-0.128-0.019-0.24-0.101-0.298-0.217 l-0.964-1.951L46.043,26.6c-0.058,0.117-0.169,0.199-0.298,0.217l-2.154,0.312l1.559,1.519c0.094,0.092,0.136,0.222,0.115,0.353 l-0.368,2.144l1.925-1.012C46.879,30.101,46.944,30.087,47.007,30.087z"/></g><g><path fill="#fde751" d="M27.685 54.566L30.265 51.986 43.7 48.788 37.828 55.834z"/><path fill="#472b29" d="M41.815,49.956l-4.28,5.137l-8.343-1.043l1.428-1.428L41.815,49.956 M45.584,47.62L29.91,51.352 l-3.732,3.732l11.942,1.493L45.584,47.62L45.584,47.62z"/><path fill="#fde751" d="M45.934 63.94L52.98 58.068 49.781 71.503 47.202 74.083z"/><path fill="#472b29" d="M51.812,59.953l-2.665,11.195l-1.428,1.428l-1.043-8.343L51.812,59.953 M54.148,56.184 l-8.957,7.464l1.493,11.942l3.732-3.732L54.148,56.184L54.148,56.184z"/><path fill="#ea5167" d="M31.721,72.729c-1.068,0-1.967-0.123-2.471-0.209c-0.221-1.293-0.671-5.196,1.287-7.95 c1.156-1.626,2.99-2.609,5.455-2.924l4.131,4.131C39.389,71.512,35.168,72.729,31.721,72.729 C31.722,72.729,31.722,72.729,31.721,72.729z"/><path fill="#472b29" d="M35.745,62.387l1.818,1.818l1.818,1.818c-0.632,3.985-3.206,6.004-7.659,6.004 c-0.729,0-1.375-0.06-1.857-0.124c-0.2-1.521-0.362-4.677,1.247-6.935C32.097,63.586,33.654,62.719,35.745,62.387 M36.248,60.911 c-10.266,1.048-7.595,12.204-7.595,12.204s1.307,0.313,3.069,0.313c3.385,0,8.447-1.156,9.136-7.908 c-1.536-1.536-2.305-2.305-2.305-2.305S37.784,62.447,36.248,60.911L36.248,60.911z"/><path fill="#fde751" d="M33.629,68.955c-0.338,0-0.611-0.022-0.777-0.04c-0.112-0.953-0.359-5.222,4.051-6.063 l2.014,2.014C38.238,68.42,35.321,68.955,33.629,68.955L33.629,68.955z"/><path fill="#472b29" d="M36.82,63.123l0.913,0.913l0.913,0.912c-0.692,3.262-3.423,3.758-5.016,3.758 c-0.215,0-0.402-0.009-0.55-0.021C32.978,67.509,32.998,63.932,36.82,63.123 M36.987,62.582 c-5.318,0.918-4.356,6.556-4.356,6.556s0.398,0.068,0.999,0.068c1.663,0,4.883-0.519,5.557-4.424c-0.733-0.733-1.1-1.1-1.1-1.1 S37.72,63.315,36.987,62.582L36.987,62.582z"/><path fill="#bebacb" d="M35.926 61.013L37.671 57.667 44.101 64.097 40.755 65.842z"/><path fill="#472b29" d="M37.851,58.837l5.081,5.08l-2.045,1.067l-4.103-4.103L37.851,58.837 M37.492,56.498l-2.424,4.646 l5.556,5.556l4.647-2.425L37.492,56.498L37.492,56.498z"/><path fill="#bebacb" d="M44.515,64.942c-0.269,0-0.521-0.105-0.712-0.295l-6.69-6.69c-0.367-0.366-0.392-0.964-0.057-1.36 l15.459-18.262c4.529-5.426,10.238-6.564,14.231-6.564c0.742,0,1.473,0.041,2.171,0.121c0.474,0.055,0.841,0.441,0.874,0.92 c0.219,3.213,0.04,11.245-6.354,16.424L45.164,64.704C44.982,64.857,44.752,64.942,44.515,64.942L44.515,64.942z"/><path fill="#472b29" d="M66.747,32.471c0.715,0,1.419,0.039,2.091,0.116c0.138,0.016,0.246,0.13,0.255,0.272 c0.212,3.104,0.043,10.86-6.12,15.852L44.711,64.17c-0.071,0.06-0.146,0.072-0.197,0.072c-0.047,0-0.138-0.012-0.216-0.089 l-3.32-3.32l-0.051-0.051l-3.32-3.32c-0.111-0.111-0.119-0.292-0.017-0.413l15.465-18.27 C57.408,33.565,62.904,32.471,66.747,32.471 M66.747,31.071c-3.819,0-9.957,1.05-14.766,6.812L36.522,56.145 c-0.573,0.677-0.531,1.681,0.096,2.308l3.32,3.32l0.051,0.051l3.32,3.319c0.331,0.332,0.768,0.5,1.206,0.5 c0.391,0,0.782-0.133,1.102-0.404l18.262-15.459c6.657-5.392,6.833-13.771,6.612-17.016c-0.056-0.814-0.681-1.474-1.492-1.567 C68.405,31.128,67.639,31.071,66.747,31.071L66.747,31.071z"/><g><path fill="#78cdd4" d="M55.877 41.391A4.5 4.5 0 1 0 55.877 50.391A4.5 4.5 0 1 0 55.877 41.391Z"/></g><g><path fill="#472b29" d="M60.109,47.922c-0.056,0-0.114-0.01-0.17-0.029c-0.26-0.094-0.394-0.381-0.3-0.641 c0.294-0.815,0.315-1.723,0.057-2.552c-0.082-0.264,0.065-0.544,0.329-0.626c0.266-0.085,0.544,0.066,0.626,0.329 c0.322,1.036,0.296,2.169-0.072,3.188C60.506,47.795,60.314,47.922,60.109,47.922z"/></g><g><path fill="#472b29" d="M55.876,50.892c-1.335,0-2.591-0.521-3.535-1.465s-1.464-2.199-1.464-3.535s0.52-2.592,1.464-3.536 c1.95-1.948,5.122-1.948,7.071,0c0.195,0.195,0.195,0.512,0,0.707s-0.512,0.195-0.707,0c-1.56-1.559-4.097-1.558-5.657,0 c-0.755,0.756-1.171,1.761-1.171,2.829s0.416,2.073,1.171,2.828c1.511,1.512,4.146,1.512,5.657,0c0.195-0.195,0.512-0.195,0.707,0 s0.195,0.512,0,0.707C58.468,50.371,57.212,50.892,55.876,50.892z"/></g><g><path fill="#ea4989" d="M67.453,42.797c2.256-4.967,1.614-10.224,1.604-10.224c0-0.01-5.065-1.021-10.213,1.584 L67.453,42.797z"/></g><g><path fill="#472b29" d="M63.478,38.805c-0.064,0-0.128-0.024-0.177-0.073l-4.729-4.729c-0.098-0.098-0.098-0.256,0-0.354 s0.256-0.098,0.354,0l4.729,4.729c0.098,0.098,0.098,0.256,0,0.354C63.606,38.78,63.542,38.805,63.478,38.805z"/></g><g><path fill="#472b29" d="M66.483,41.811c-0.064,0-0.128-0.024-0.177-0.073l-1.856-1.856c-0.098-0.098-0.098-0.256,0-0.354 s0.256-0.098,0.354,0l1.856,1.856c0.098,0.098,0.098,0.256,0,0.354C66.611,41.786,66.547,41.811,66.483,41.811z"/></g></g><g><path fill="#472b29" d="M47.954,59.922c-0.064,0-0.128-0.024-0.177-0.073l-4.491-4.491c-0.098-0.098-0.098-0.256,0-0.354 s0.256-0.098,0.354,0l4.491,4.491c0.098,0.098,0.098,0.256,0,0.354C48.082,59.897,48.018,59.922,47.954,59.922z"/></g><g><path fill="#472b29" d="M42.372,54.34c-0.064,0-0.128-0.024-0.177-0.073l-1.763-1.764c-0.098-0.098-0.098-0.256,0-0.354 s0.256-0.098,0.354,0l1.763,1.764c0.098,0.098,0.098,0.256,0,0.354C42.5,54.315,42.436,54.34,42.372,54.34z"/></g></svg>